<?xml version="1.0" encoding="iso-8859-1"?>
<!-- Generator: Adobe Illustrator 19.0.0, SVG Export Plug-In . SVG Version: 6.00 Build 0)  -->
<svg version="1.1" id="Capa_1" xmlns="http://www.w3.org/2000/svg" xmlns:xlink="http://www.w3.org/1999/xlink" x="0px" y="0px"
	 viewBox="0 0 512 512" style="enable-background:new 0 0 512 512;" xml:space="preserve">
<path style="fill:#5377A2;" d="M410.871,34.152v443.696c0,13.336-10.806,24.152-24.152,24.152H125.282
	c-13.346,0-24.152-10.816-24.152-24.152V34.152C101.13,20.816,111.936,10,125.282,10h261.437
	C400.065,10,410.871,20.816,410.871,34.152z"/>
<rect x="101.13" y="72.934" style="fill:#DCFEFF;" width="309.74" height="343.59"/>
<path d="M386.719,0H125.282C106.45,0,91.13,15.32,91.13,34.152v443.696c0,18.832,15.32,34.152,34.152,34.152h261.438
	c18.831,0,34.151-15.32,34.151-34.152V34.152C420.87,15.32,405.549,0,386.719,0z M125.282,20h261.438
	c7.803,0,14.151,6.349,14.151,14.152v28.782H111.13V34.152C111.13,26.349,117.478,20,125.282,20z M400.87,406.527H111.13V82.934
	h289.74V406.527z M386.719,492H125.282c-7.803,0-14.152-6.349-14.152-14.152v-51.321h289.74v51.321
	C400.87,485.651,394.522,492,386.719,492z"/>
<path d="M372.056,388.934h-44.767c-5.523,0-10-4.477-10-10s4.477-10,10-10h34.767v-34.766c0-5.523,4.477-10,10-10
	c5.522,0,10,4.477,10,10v44.766C382.056,384.457,377.578,388.934,372.056,388.934z"/>
<path d="M139.945,159.945c-5.523,0-10-4.477-10-10v-44.766c0-5.523,4.477-10,10-10h44.767c5.523,0,10,4.477,10,10s-4.477,10-10,10
	h-34.767v34.766C149.945,155.468,145.468,159.945,139.945,159.945z"/>
<path d="M184.711,388.934h-44.767c-5.523,0-10-4.477-10-10v-44.766c0-5.523,4.477-10,10-10s10,4.477,10,10v34.766h34.767
	c5.523,0,10,4.477,10,10S190.234,388.934,184.711,388.934z"/>
<path d="M372.056,159.945c-5.523,0-10-4.477-10-10v-34.766h-34.767c-5.523,0-10-4.477-10-10s4.477-10,10-10h44.767
	c5.522,0,10,4.477,10,10v44.766C382.056,155.468,377.578,159.945,372.056,159.945z"/>
<rect x="239.67" y="443.63" style="fill:#FF5B70;" width="32.653" height="32.653"/>
<path d="M272.326,486.284h-32.653c-5.523,0-10-4.477-10-10V443.63c0-5.523,4.477-10,10-10h32.653c5.522,0,10,4.477,10,10v32.653
	C282.326,481.807,277.849,486.284,272.326,486.284z M249.674,466.284h12.653V453.63h-12.653V466.284z"/>
<path d="M319.079,51.96c-0.66,0-1.311-0.06-1.96-0.19c-0.641-0.13-1.261-0.32-1.87-0.57c-0.601-0.25-1.181-0.56-1.72-0.92
	c-0.551-0.36-1.061-0.78-1.52-1.24c-0.46-0.46-0.88-0.98-1.25-1.52c-0.36-0.55-0.67-1.13-0.92-1.73s-0.44-1.23-0.57-1.87
	c-0.13-0.65-0.189-1.3-0.189-1.95c0-0.66,0.06-1.31,0.189-1.96c0.13-0.64,0.32-1.27,0.57-1.87s0.56-1.18,0.92-1.73
	c0.37-0.54,0.79-1.06,1.25-1.52s0.97-0.87,1.52-1.24c0.539-0.36,1.119-0.67,1.72-0.92c0.609-0.25,1.229-0.44,1.87-0.57
	c1.29-0.26,2.62-0.26,3.91,0c0.64,0.13,1.27,0.32,1.869,0.57c0.61,0.25,1.19,0.56,1.73,0.92c0.55,0.37,1.06,0.78,1.52,1.24
	c0.46,0.46,0.881,0.98,1.24,1.52c0.36,0.55,0.67,1.13,0.92,1.73s0.44,1.23,0.57,1.87c0.13,0.65,0.2,1.3,0.2,1.96
	c0,0.65-0.07,1.3-0.2,1.95c-0.13,0.64-0.32,1.27-0.57,1.87s-0.56,1.18-0.92,1.73c-0.359,0.54-0.78,1.06-1.24,1.52
	s-0.97,0.88-1.52,1.24c-0.54,0.36-1.12,0.67-1.73,0.92c-0.6,0.25-1.229,0.44-1.869,0.57S319.73,51.96,319.079,51.96z"/>
<path d="M280.66,51.965h-87.737c-5.523,0-10-4.477-10-10s4.477-10,10-10h87.737c5.522,0,10,4.477,10,10
	S286.183,51.965,280.66,51.965z"/>
<path style="fill:#FFD8B9;" d="M294.872,183.171l-18.81-20.976l-16.966,20.976h-56.513V224.6c0,24.23,16.138,44.68,38.249,51.218
	l-7.079,24.507L256,313.809l22.247-13.483l-7.079-24.507c22.11-6.538,38.249-26.988,38.249-51.218v-41.429L294.872,183.171
	L294.872,183.171z"/>
<path style="fill:#FF5B70;" d="M313.964,292.07h-38.102l2.385,8.256L256,313.809l-22.247-13.483l2.385-8.256h-38.102
	c-16.82,0-30.456,13.636-30.456,30.456v23.787h176.84v-23.787C344.42,305.705,330.785,292.07,313.964,292.07z"/>
<path style="fill:#5377A2;" d="M339.566,261.056v-61.902c0-46.152-37.414-83.566-83.566-83.566l0,0
	c-46.152,0-83.566,37.414-83.566,83.566v61.902c-10.008,1.967-17.558,10.784-17.558,21.368l0,0c0,11.079,8.274,20.219,18.978,21.595
	c5.566-7.262,14.325-11.949,24.182-11.949h38.102l4.694-16.251c-22.11-6.538-38.249-26.988-38.249-51.218v-41.429h56.513
	l16.966-20.976l18.81,20.976h14.544V224.6c0,24.23-16.139,44.68-38.249,51.218l4.694,16.251h38.102
	c9.857,0,18.616,4.687,24.182,11.949c10.704-1.376,18.978-10.516,18.978-21.595l0,0C357.124,271.84,349.573,263.023,339.566,261.056
	z"/>
<path d="M367.124,282.424c0-12.234-7.03-23.141-17.559-28.421v-54.849c0-51.592-41.974-93.566-93.565-93.566
	c-51.592,0-93.566,41.974-93.566,93.566v54.849c-10.528,5.281-17.558,16.188-17.558,28.421c0,11.222,5.911,21.254,14.921,26.919
	c-1.43,4.135-2.217,8.568-2.217,13.183v23.788c0,5.523,4.477,10,10,10h176.84c5.522,0,10-4.477,10-10v-23.788
	c0-4.615-0.787-9.047-2.217-13.183C361.213,303.678,367.124,293.646,367.124,282.424z M174.363,270.869
	c4.69-0.922,8.072-5.033,8.072-9.813v-61.902c0-40.564,33.001-73.566,73.566-73.566c40.564,0,73.565,33.002,73.565,73.566v61.902
	c0,4.779,3.382,8.891,8.071,9.813c5.497,1.08,9.487,5.94,9.487,11.555c0,4.313-2.351,8.153-5.897,10.204
	c-5.858-5.372-13.118-8.852-20.982-10.068c-0.062-0.01-0.123-0.021-0.185-0.03c-0.556-0.083-1.116-0.153-1.677-0.214
	c-0.124-0.014-0.247-0.031-0.372-0.043c-0.522-0.051-1.047-0.089-1.573-0.12c-0.153-0.009-0.305-0.024-0.458-0.032
	c-0.669-0.033-1.341-0.051-2.016-0.051h-30.582l-0.07-0.246c21.665-10.399,36.105-32.693,36.105-57.224v-41.429
	c0-5.523-4.478-10-10-10h-10.079l-15.83-17.652c-1.956-2.181-4.754-3.4-7.7-3.32c-2.929,0.075-5.678,1.43-7.52,3.708l-13.963,17.265
	h-51.74c-5.523,0-10,4.477-10,10V224.6c0,24.53,14.44,46.825,36.106,57.224l-0.071,0.246h-30.582c-0.675,0-1.347,0.019-2.016,0.051
	c-0.154,0.008-0.305,0.022-0.458,0.032c-0.526,0.031-1.051,0.069-1.573,0.12c-0.125,0.012-0.248,0.03-0.373,0.043
	c-0.561,0.06-1.12,0.13-1.676,0.214c-0.063,0.01-0.124,0.021-0.187,0.031c-7.864,1.216-15.123,4.696-20.981,10.068
	c-3.545-2.051-5.896-5.891-5.896-10.204C164.876,276.809,168.866,271.949,174.363,270.869z M266.515,295.743L256,302.115
	l-10.514-6.372l0.26-0.898l4.694-16.251c1.525-5.282-1.499-10.805-6.772-12.364c-18.302-5.412-31.085-22.531-31.085-41.629v-31.429
	h46.513c3.02,0,5.877-1.364,7.775-3.711l9.582-11.848l10.973,12.236c1.897,2.115,4.604,3.324,7.445,3.324h4.544V224.6
	c0,19.099-12.782,36.217-31.085,41.629c-5.272,1.559-8.297,7.082-6.771,12.365l4.695,16.251c0.001,0.002,0.001,0.004,0.002,0.006
	L266.515,295.743z M334.42,336.314H177.58v-13.788c0-4.896,1.733-9.394,4.613-12.919c0.039-0.047,0.077-0.095,0.116-0.142
	c2.902-3.488,6.938-5.998,11.537-6.96c0.05-0.01,0.1-0.021,0.151-0.031c0.616-0.124,1.242-0.22,1.876-0.287
	c0.072-0.008,0.144-0.012,0.216-0.019c0.641-0.061,1.29-0.099,1.947-0.099h25.87c0.491,2.767,2.141,5.278,4.664,6.808l22.247,13.483
	c3.186,1.932,7.179,1.931,10.366,0l22.247-13.483c2.524-1.529,4.174-4.04,4.665-6.808h25.869c0.657,0,1.306,0.038,1.947,0.099
	c0.072,0.007,0.144,0.011,0.215,0.018c0.635,0.067,1.261,0.163,1.878,0.287c0.049,0.01,0.098,0.02,0.147,0.03
	c4.603,0.962,8.642,3.474,11.544,6.966c0.035,0.043,0.07,0.086,0.105,0.129c2.884,3.526,4.619,8.027,4.619,12.927v13.789H334.42z"/>
<g>
</g>
<g>
</g>
<g>
</g>
<g>
</g>
<g>
</g>
<g>
</g>
<g>
</g>
<g>
</g>
<g>
</g>
<g>
</g>
<g>
</g>
<g>
</g>
<g>
</g>
<g>
</g>
<g>
</g>
</svg>
