<svg id="Capa_1" enable-background="new 0 0 512 512" height="512" viewBox="0 0 512 512" width="512" xmlns="http://www.w3.org/2000/svg"><g><g><path d="m112.196 204.685c-16.569 0-30 13.432-30 30v136.365l20 31.867-20 31.867v33.735c0 16.568 13.431 30 30 30h184.902l30-146.917-30-146.917z" fill="#dce6eb"/><path d="m482 204.685h-184.902v293.834h184.902c16.569 0 30-13.432 30-30v-33.735l-20-31.867 20-31.867v-136.365c0-16.569-13.431-30-30-30z" fill="#c8d2dc"/></g><g><path d="m82.196 371.05v63.734h214.902l20-31.867-20-31.867z" fill="#07485e"/><path d="m297.098 371.05h214.902v63.734h-214.902z" fill="#03232e"/></g><g><path d="m30 13.481c-16.569 0-30 13.432-30 30v233.834c0 16.568 13.431 30 30 30h184.902l20-150.002-20-143.832z" fill="#5ecef4"/><path d="m399.804 13.481h-184.902v293.834h184.902c16.569 0 30-13.432 30-30v-233.834c0-16.568-13.432-30-30-30z" fill="#0fa9dd"/></g><g><g><path d="m47.801 212.218h59.294v30h-59.294z" fill="#fff5f5"/></g><g><path d="m139.437 212.218h59.294v30h-59.294z" fill="#fff5f5"/></g><g><path d="m231.073 212.218h59.294v30h-59.294z" fill="#dce6eb"/></g><g><path d="m322.709 212.218h59.294v30h-59.294z" fill="#dce6eb"/></g><path d="m47.801 93.579h91.636v63.734h-91.636z" fill="#ffe477"/></g></g></svg>